<svg viewBox="0 0 330 200" xmlns="http://www.w3.org/2000/svg"><g><g><g><g><g><line x1="51.5625" y1="177" x2="46.5625" y2="177" style="visibility: inherit;" fill="rgb(0, 0, 0)" stroke="rgb(204, 204, 204)" stroke-width="1px"></line><line x1="51.5625" y1="154.875" x2="46.5625" y2="154.875" style="visibility: inherit;" fill="rgb(0, 0, 0)" stroke="rgb(204, 204, 204)" stroke-width="1px"></line><line x1="51.5625" y1="132.74999999999997" x2="46.5625" y2="132.74999999999997" style="visibility: inherit;" fill="rgb(0, 0, 0)" stroke="rgb(204, 204, 204)" stroke-width="1px"></line><line x1="51.5625" y1="110.625" x2="46.5625" y2="110.625" style="visibility: inherit;" fill="rgb(0, 0, 0)" stroke="rgb(204, 204, 204)" stroke-width="1px"></line><line x1="51.5625" y1="88.5" x2="46.5625" y2="88.5" style="visibility: inherit;" fill="rgb(0, 0, 0)" stroke="rgb(204, 204, 204)" stroke-width="1px"></line><line x1="51.5625" y1="66.37500000000004" x2="46.5625" y2="66.37500000000004" style="visibility: inherit;" fill="rgb(0, 0, 0)" stroke="rgb(204, 204, 204)" stroke-width="1px"></line><line x1="51.5625" y1="44.25000000000002" x2="46.5625" y2="44.25000000000002" style="visibility: inherit;" fill="rgb(0, 0, 0)" stroke="rgb(204, 204, 204)" stroke-width="1px"></line><line x1="51.5625" y1="22.12500000000002" x2="46.5625" y2="22.12500000000002" style="visibility: inherit;" fill="rgb(0, 0, 0)" stroke="rgb(204, 204, 204)" stroke-width="1px"></line><line x1="51.5625" y1="0" x2="46.5625" y2="0" style="visibility: inherit;" fill="rgb(0, 0, 0)" stroke="rgb(204, 204, 204)" stroke-width="1px"></line></g><g transform="translate(41.5625, 0)"><text x="0" y="177" dx="0em" dy="0.3em" style="text-anchor: end; visibility: hidden; font-family: Roboto, sans-serif; font-size: 12px; font-weight: 200;" fill="rgb(33, 33, 33)" stroke="none" stroke-width="1px">0.7</text><text x="0" y="154.875" dx="0em" dy="0.3em" style="text-anchor: end; visibility: inherit; font-family: Roboto, sans-serif; font-size: 12px; font-weight: 200;" fill="rgb(33, 33, 33)" stroke="none" stroke-width="1px">0.75</text><text x="0" y="132.74999999999997" dx="0em" dy="0.3em" style="text-anchor: end; visibility: hidden; font-family: Roboto, sans-serif; font-size: 12px; font-weight: 200;" fill="rgb(33, 33, 33)" stroke="none" stroke-width="1px">0.8</text><text x="0" y="110.625" dx="0em" dy="0.3em" style="text-anchor: end; visibility: inherit; font-family: Roboto, sans-serif; font-size: 12px; font-weight: 200;" fill="rgb(33, 33, 33)" stroke="none" stroke-width="1px">0.85</text><text x="0" y="88.5" dx="0em" dy="0.3em" style="text-anchor: end; visibility: hidden; font-family: Roboto, sans-serif; font-size: 12px; font-weight: 200;" fill="rgb(33, 33, 33)" stroke="none" stroke-width="1px">0.9</text><text x="0" y="66.37500000000004" dx="0em" dy="0.3em" style="text-anchor: end; visibility: inherit; font-family: Roboto, sans-serif; font-size: 12px; font-weight: 200;" fill="rgb(33, 33, 33)" stroke="none" stroke-width="1px">0.95</text><text x="0" y="44.25000000000002" dx="0em" dy="0.3em" style="text-anchor: end; visibility: hidden; font-family: Roboto, sans-serif; font-size: 12px; font-weight: 200;" fill="rgb(33, 33, 33)" stroke="none" stroke-width="1px">1</text><text x="0" y="22.12500000000002" dx="0em" dy="0.3em" style="text-anchor: end; visibility: inherit; font-family: Roboto, sans-serif; font-size: 12px; font-weight: 200;" fill="rgb(33, 33, 33)" stroke="none" stroke-width="1px">1.05</text><text x="0" y="0" dx="0em" dy="0.3em" style="text-anchor: end; visibility: hidden; font-family: Roboto, sans-serif; font-size: 12px; font-weight: 200;" fill="rgb(33, 33, 33)" stroke="none" stroke-width="1px">1.1</text></g><line x1="51.5625" y1="0" x2="51.5625" y2="177" fill="rgb(0, 0, 0)" stroke="rgb(204, 204, 204)" stroke-width="1px"></line></g></g><g transform="translate(51, 0)" clip-path="url(#clip_0)"><clipPath id="clip_0"><rect width="278" height="177"></rect></clipPath><g><g><g><line x1="0" y1="0" x2="0" y2="177" fill="rgb(0, 0, 0)" stroke="rgb(66, 66, 66)" stroke-width="1px" opacity="0.25"></line><line x1="25.3125" y1="0" x2="25.3125" y2="177" fill="rgb(0, 0, 0)" stroke="rgb(66, 66, 66)" stroke-width="1px" opacity="0.25"></line><line x1="50.625" y1="0" x2="50.625" y2="177" fill="rgb(0, 0, 0)" stroke="rgb(66, 66, 66)" stroke-width="1px" opacity="0.25"></line><line x1="75.9375" y1="0" x2="75.9375" y2="177" fill="rgb(0, 0, 0)" stroke="rgb(66, 66, 66)" stroke-width="1px" opacity="0.25"></line><line x1="101.25" y1="0" x2="101.25" y2="177" fill="rgb(0, 0, 0)" stroke="rgb(66, 66, 66)" stroke-width="1px" opacity="0.25"></line><line x1="126.5625" y1="0" x2="126.5625" y2="177" fill="rgb(0, 0, 0)" stroke="rgb(66, 66, 66)" stroke-width="1px" opacity="0.25"></line><line x1="151.875" y1="0" x2="151.875" y2="177" fill="rgb(0, 0, 0)" stroke="rgb(66, 66, 66)" stroke-width="1px" opacity="0.25"></line><line x1="177.1875" y1="0" x2="177.1875" y2="177" fill="rgb(0, 0, 0)" stroke="rgb(66, 66, 66)" stroke-width="1px" opacity="0.25"></line><line x1="202.5" y1="0" x2="202.5" y2="177" fill="rgb(0, 0, 0)" stroke="rgb(66, 66, 66)" stroke-width="1px" opacity="0.25"></line><line x1="227.8125" y1="0" x2="227.8125" y2="177" fill="rgb(0, 0, 0)" stroke="rgb(66, 66, 66)" stroke-width="1px" opacity="0.25"></line><line x1="253.125" y1="0" x2="253.125" y2="177" fill="rgb(0, 0, 0)" stroke="rgb(66, 66, 66)" stroke-width="1px" opacity="0.25"></line><line x1="278.4375" y1="0" x2="278.4375" y2="177" fill="rgb(0, 0, 0)" stroke="rgb(66, 66, 66)" stroke-width="1px" opacity="0.25"></line></g><g><line x1="0" y1="177" x2="278.4375" y2="177" fill="rgb(0, 0, 0)" stroke="rgb(66, 66, 66)" stroke-width="1px" opacity="0.25"></line><line x1="0" y1="154.875" x2="278.4375" y2="154.875" fill="rgb(0, 0, 0)" stroke="rgb(66, 66, 66)" stroke-width="1px" opacity="0.25"></line><line x1="0" y1="132.74999999999997" x2="278.4375" y2="132.74999999999997" fill="rgb(0, 0, 0)" stroke="rgb(66, 66, 66)" stroke-width="1px" opacity="0.25"></line><line x1="0" y1="110.625" x2="278.4375" y2="110.625" fill="rgb(0, 0, 0)" stroke="rgb(66, 66, 66)" stroke-width="1px" opacity="0.25"></line><line x1="0" y1="88.5" x2="278.4375" y2="88.5" fill="rgb(0, 0, 0)" stroke="rgb(66, 66, 66)" stroke-width="1px" opacity="0.25"></line><line x1="0" y1="66.37500000000004" x2="278.4375" y2="66.37500000000004" fill="rgb(0, 0, 0)" stroke="rgb(66, 66, 66)" stroke-width="1px" opacity="0.25"></line><line x1="0" y1="44.25000000000002" x2="278.4375" y2="44.25000000000002" fill="rgb(0, 0, 0)" stroke="rgb(66, 66, 66)" stroke-width="1px" opacity="0.25"></line><line x1="0" y1="22.12500000000002" x2="278.4375" y2="22.12500000000002" fill="rgb(0, 0, 0)" stroke="rgb(66, 66, 66)" stroke-width="1px" opacity="0.25"></line><line x1="0" y1="0" x2="278.4375" y2="0" fill="rgb(0, 0, 0)" stroke="rgb(66, 66, 66)" stroke-width="1px" opacity="0.25"></line></g></g></g><g><g><line x1="0" y1="486.74999999999983" x2="278.4375" y2="486.74999999999983" fill="rgb(0, 0, 0)" stroke="rgb(153, 153, 153)" stroke-width="1.5px"></line></g></g><g><g><line x1="25.3125" y1="0" x2="25.3125" y2="177" fill="rgb(0, 0, 0)" stroke="rgb(153, 153, 153)" stroke-width="1.5px"></line></g></g><g><g><g><g><g><path stroke="rgb(51, 187, 238)" stroke-width="2px" d="M35.690625,-0.9613813161849583L36.095625,7.568944573402444L36.500625,6.36334079504017L36.905625,8.469758212566415L37.310625,24.123142540454904L37.715625,15.441740334034005L37.96875,13.578289926052133L38.37375,41.69204163551333L38.77875,33.15712648630144L39.18375,42.381169080734274L39.588750000000005,37.380986094474814L39.993750000000006,26.610415756702462L40.39875000000001,33.641003251075766L40.803749999999994,61.15306082367899L41.208749999999995,61.0852769315243L41.613749999999996,32.90302920341494L42.01875,52.319975674152396L42.42375,50.4605078995228L42.82875,51.038332611322424L43.23375,62.497634768486044L43.638749999999995,60.34880626201632L44.043749999999996,46.59141916036608L44.296875,74.41789376735689L44.701875,60.11551889777186L45.106875,82.70298439264299L45.511875,73.42118042707445L45.916875000000005,67.55713525414468L46.321875,69.57021135091783L46.726875,73.90582206845285L47.131875,61.492375910282156L47.536875,65.95759364962579L47.941875,82.83090341091157L48.346875000000004,86.25269758701326L48.751875000000005,76.19549337029459L49.156875,72.79419261217119L49.561875,79.35538324713708L49.966875,93.68463429808617L50.371875,88.33390045166017L50.625,95.84928783774376L51.03,75.96690076589586L51.435,108.9510438144207L51.839999999999996,102.50112953782082L52.245,98.57844668626785L52.65,95.45978102087975L53.055,81.88211354613306L53.46,79.33412495255472L53.865,92.38141644001007L54.27,93.68384304642677L54.675,77.79793623089792L55.08,113.02641186118126L55.485,105.25874707102776L55.89,91.82619515061378L56.295,102.43197414278984L56.7,89.59288734197617L56.953125,87.91780757904054L57.358124999999994,112.40061092376709L57.763124999999995,97.72075626254082L58.168124999999996,110.58737862110138L58.573125,97.84719827771187L58.978125,98.23356646299362L59.383125,102.76638346910477L59.788125,106.34207609295845L60.193124999999995,96.52145612239838L60.598124999999996,82.79975447058679L61.003125,104.89284592866898L61.408125,102.02558729052544L61.813125,98.14824315905571L62.218125,101.8126614689827L62.623125,108.83401769399643L63.028124999999996,103.08839651942253L63.28125,87.34420287609102L63.68625,104.3923792541027L64.09125,104.829334795475L64.49625,104.7997419834137L64.90125,123.20045757293701L65.30625,95.59091779589653L65.71124999999999,100.89739429950714L66.11625,115.12346613407135L66.52125,123.80362871289253L66.92625,108.05389630794525L67.33125,110.4936680495739L67.73625,112.88351181149483L68.14125,104.84679508209229L68.54625,104.93219751119614L68.95125,112.26707401871681L69.35625,97.28364247083664L69.609375,110.03948959708214L70.01437499999999,108.8222807943821L70.419375,120.90566951036453L70.82437499999999,115.5401920080185L71.229375,89.70935958623886L71.63437499999999,105.77427390217781L72.039375,121.32149863243103L72.444375,107.6866500377655L72.849375,115.835144251585L73.254375,101.81300434470177L73.659375,115.73787304759026L74.064375,111.92314329743385L74.469375,113.96734195947647L74.874375,123.36068603396416L75.279375,106.7286289036274L75.68437499999999,121.72838661074638L75.9375,99.88575267791748L76.3425,128.66927254199982L76.7475,104.5545067191124L77.1525,113.27446925640106L77.5575,129.50562554597855L77.9625,122.2110501229763L78.3675,110.93951198458672L78.7725,119.52208685874939L79.17750000000001,108.7100285589695L79.5825,99.22199803590775L79.98750000000001,126.32545325160027L80.3925,117.42078620195389L80.79750000000001,111.47363322973251L81.2025,115.89854988455772L81.60749999999999,103.24131909012794L82.0125,109.36014729738235L82.265625,120.72729501128197L82.670625,131.81178125739098L83.075625,113.91332584619522L83.480625,124.00162625312805L83.88562499999999,124.96434214711189L84.290625,108.48201620578766L84.69562499999999,132.26282107830048L85.10062500000001,113.89808106422424L85.505625,129.9585907459259L85.91062500000001,103.2941483259201L86.315625,118.0150953233242L86.720625,112.34015929698944L87.125625,104.91484272480011L87.530625,106.12313675880432L87.935625,116.7953545153141L88.340625,117.01922598481178L88.59375,127.88052651286125L88.99875,114.46767675876617L89.40375,115.81428158283234L89.80874999999999,128.53592026233673L90.21375,138.23062571883202L90.61874999999999,109.82144701480865L91.02375,139.43952637910843L91.42875,116.41597571969032L91.83375000000001,118.13681620359421L92.23875,112.42213296890259L92.64375,129.32622241973877L93.04875,114.16101399064064L93.45375,130.05570369958878L93.85875,128.0322885811329L94.26375,102.56545829772949L94.66875,125.58048981428146L94.921875,132.80414271354675L95.326875,124.20669230818748L95.73187499999999,119.51058733463287L96.136875,143.36046847701073L96.54187499999999,117.89627569913864L96.946875,132.71763253211975L97.35187499999999,117.74556863307953L97.756875,123.96272304654121L98.161875,121.62396776676178L98.566875,125.71368384361267L98.971875,120.78748288750648L99.376875,127.49162632226944L99.781875,122.17328104376793L100.186875,123.27304172515869L100.59187499999999,125.49775126576424L100.996875,118.33573687076569L101.25,107.9419341981411L101.655,122.09165024757385L102.06,113.97836673259735L102.465,121.03538203239441L102.87,132.2353118956089L103.275,118.29762491583824L103.67999999999999,129.5220308303833L104.08500000000001,132.0580978989601L104.49,121.11084106564522L104.89500000000001,130.64713793992996L105.3,127.16642189025879L105.70500000000001,138.31223013997078L106.11,127.73322182893753L106.51499999999999,125.34303519129753L106.92,114.43589481711388L107.32499999999999,132.7513398528099L107.578125,101.4847404062748L107.983125,124.47323861718178L108.388125,117.45829153060913L108.79312499999999,133.8618088066578L109.198125,127.4788607954979L109.60312499999999,120.43864640593529L110.008125,129.57346218824387L110.413125,127.89978030323982L110.81812500000001,111.16457033157349L111.223125,122.82514053583145L111.628125,124.48832514882088L112.033125,125.07456350326538L112.438125,124.40732735395432L112.843125,141.4174181520939L113.248125,117.20931100845337L113.653125,131.51342663168907L113.90625,105.3590250313282L114.31125,121.19210261106491L114.71624999999999,126.60611021518707L115.12125,132.6270078420639L115.52624999999999,136.8330379128456L115.93125,126.46471354365349L116.33624999999999,132.60015803575516L116.74125000000001,124.41822025179863L117.14625,121.16493630409241L117.55125,122.18612569570541L117.95625,127.83062490820885L118.36125,119.41692951321602L118.76625,129.69760957360268L119.17125,114.83948591351509L119.57625,136.90957832336426L119.98125,146.83316650986671L120.234375,88.99839359521866L120.639375,126.34985017776489L121.044375,133.25818929076195L121.449375,128.60884729027748L121.854375,124.34932860732079L122.259375,120.588562220335L122.66437499999999,129.47803723812103L123.06937500000001,139.5686322748661L123.474375,136.66856306791306L123.87937500000001,119.8128190934658L124.284375,136.7354238331318L124.689375,115.06639051437378L125.094375,125.401113063097L125.499375,141.4506507217884L125.904375,115.99534633755684L126.30937499999999,118.03659099340439L126.5625,107.08498227596283L126.9675,133.90498477220535L127.3725,129.8521673977375L127.7775,119.14547744393349L128.1825,119.99731260538101L128.5875,126.22224766016006L128.9925,121.86297851800919L129.3975,139.4153404533863L129.8025,131.4514980018139L130.2075,117.34432491660118L130.6125,131.1883804500103L131.0175,135.76669442653656L131.42249999999999,136.25616270303726L131.82750000000001,139.88215255737305L132.2325,121.56591627001762L132.63750000000002,121.94732594490051L132.890625,139.10983818769455L133.295625,133.557651668787L133.700625,111.87284606695175L134.105625,142.53292474150658L134.510625,111.11058059334755L134.915625,133.060323625803L135.320625,137.66031789779663L135.725625,153.18765583634377L136.130625,131.62728774547577L136.535625,129.45211055874825L136.940625,143.11863559484482L137.34562499999998,140.12657019495964L137.750625,120.89068847894669L138.155625,120.11038246750832L138.56062500000002,125.11278095841408L138.965625,117.05082330107689L139.21875,130.96020984649658L139.62375,153.19390672445297L140.02874999999997,137.74176406860352L140.43375,134.03031903505325L140.83875,110.85587668418884L141.24375,127.7106184065342L141.64874999999998,126.8795667886734L142.05375,127.5798508822918L142.45875,132.43700194358826L142.86374999999998,127.17678728699684L143.26874999999998,132.4469717144966L143.67375,121.85300874710083L144.07875,133.55427566170692L144.48375,118.65076053142548L144.88875,134.09855130314827L145.29375000000002,131.33278387784958L145.546875,99.64766505360603L145.951875,137.59873214364052L146.356875,132.00049477815628L146.761875,133.12233138084412L147.166875,133.68475306034088L147.571875,140.18820869922638L147.97687499999998,129.35109409689903L148.381875,123.98205596208572L148.786875,130.24391609430313L149.191875,123.45927599072456L149.59687499999998,142.6192766726017L150.001875,121.75732004642487L150.406875,133.00425025820732L150.811875,129.9829349219799L151.216875,138.74997693300247L151.621875,134.80387303233147L151.875,100.92580023407936L152.28,144.82172566652298L152.685,132.24330353736877L153.09,147.57720682024956L153.495,145.57491812109947L153.9,103.50116613507271L154.305,138.2412284910679L154.70999999999998,127.24683943390846L155.115,124.7672149837017L155.52,135.3303982615471L155.925,138.07604151964188L156.32999999999998,125.8885768353939L156.735,134.75621330738068L157.14000000000001,142.4235210120678L157.545,121.24327021837234L157.95,142.2123095691204L158.203125,98.92599079012871L158.608125,138.24457812309265L159.013125,140.81738564372063L159.418125,136.11906516551971L159.82312499999998,136.2874171435833L160.228125,107.52357307076454L160.633125,141.55377718806267L161.038125,153.85657998919487L161.44312499999998,142.41297098994255L161.848125,129.77858099341393L162.253125,125.22170993685722L162.65812499999998,132.04865562915802L163.06312499999999,134.51016041636467L163.46812500000001,136.67291495203972L163.87312500000002,131.19776996970177L164.278125,127.09782037138939L164.53125,125.36722111701965L164.93624999999997,139.85506537556648L165.34125,136.65500628948212L165.74625,136.83414566516876L166.15125,139.04426980018616L166.55624999999998,133.83501175045967L166.96125,147.1069659590721L167.36625,135.93544203042984L167.77124999999998,125.20208689570427L168.17624999999998,134.28243818879128L168.58125,107.42173898220062L168.98625,144.0610954463482L169.39124999999999,123.66038578748703L169.79625,137.6718965470791L170.20125000000002,129.80395379662514L170.60625,141.257295191288L170.859375,139.18664234876633L171.264375,144.1758005619049L171.669375,127.93190512061119L172.074375,143.1741287112236L172.479375,149.36704444885254L172.88437499999998,121.6839710175991L173.289375,144.97963312268257L173.694375,143.8162821829319L174.099375,130.6255103945732L174.50437499999998,140.16486677527428L174.909375,140.03850388526917L175.314375,128.32755732536316L175.71937499999999,125.24726736545563L176.124375,136.52793127298355L176.52937500000002,137.74566757678986L176.93437500000002,137.7522085905075L177.1875,137.96189028024673L177.5925,143.96390336751938L177.9975,139.18891060352325L178.4025,142.96001601219177L178.8075,142.94471848011017L179.2125,136.48451793193817L179.61749999999998,116.99596318602562L180.0225,133.41266798973083L180.4275,146.07839155197144L180.8325,134.97987377643585L181.23749999999998,129.45058080554008L181.6425,126.7290707230568L182.0475,135.90044233202934L182.4525,120.63318881392479L182.8575,137.80986446142197L183.26250000000002,126.5174372792244L183.515625,98.57298704981804L183.920625,142.37715366482735L184.325625,148.47161132097244L184.73062499999997,141.08902233839035L185.135625,148.2882519364357L185.540625,123.90200766921043L185.945625,145.70099088549614L186.35062499999998,136.78321543335915L186.755625,145.8461591899395L187.160625,124.67616829276085L187.56562499999998,135.1046805381775L187.97062499999998,131.53376179933548L188.375625,115.87322983145714L188.78062500000001,139.86804190278053L189.185625,116.69992956519127L189.590625,145.65306740999222L189.84375,122.45219725370407L190.24875,149.93677201867104L190.65375,145.76531964540482L191.05875,150.67015680670738L191.46374999999998,134.86013102531433L191.86875,131.41755330562592L192.27375,139.99944242835045L192.67874999999998,151.16761672496796L193.08374999999998,140.07231670618057L193.48875,119.02768644690514L193.89375,139.60046696662903L194.29874999999998,144.98103100061417L194.70374999999999,131.84195432066917L195.10875000000001,146.4800836443901L195.51375,132.42526504397392L195.91875,143.42147397994995L196.171875,125.00050234794617L196.576875,158.71156829595563L196.981875,146.199400305748L197.386875,119.27041608095169L197.79187499999998,151.5994027554989L198.196875,125.15207979083061L198.601875,129.0358066856861L199.006875,146.61470192670822L199.41187499999998,124.0266561806202L199.816875,144.36836484074593L200.221875,149.75507426261902L200.626875,126.12241807579994L201.03187499999999,130.4269326031208L201.43687500000001,139.32793352007866L201.84187500000002,137.15684446692467L202.246875,126.52780267596245L202.5,121.30308884382248L202.905,136.15902337431908L203.31,135.10760816931725L203.715,138.41778311133385L204.12,152.49262037873268L204.52499999999998,137.8026904463768L204.93,129.63243681192398L205.335,134.13637313246727L205.74,136.20483684539795L206.14499999999998,149.22258827090263L206.55,146.74396607279778L206.955,123.59270739555359L207.35999999999999,135.48084157705307L207.765,143.5654290318489L208.17000000000002,142.51483145356178L208.57500000000002,149.16545990109444L208.828125,153.88163629174232L209.233125,140.70078152418137L209.63812499999997,163.79388320446012L210.043125,132.8201523721218L210.448125,136.4487533569336L210.853125,142.7186842560768L211.25812499999998,150.35589802265167L211.663125,143.87206542491913L212.068125,115.98052355647087L212.47312499999998,136.08311596512794L212.87812499999998,136.49675595760345L213.283125,117.76429492235184L213.688125,136.1017631292343L214.093125,152.9638107419014L214.498125,139.43770650029182L214.90312500000002,128.15387758612633L215.15625,134.75030529499054L215.56125,138.18468037247658L215.96625,139.59524470567703L216.37125,132.0333053469658L216.77625,154.21261686086655L217.18125,140.35405504703522L217.58624999999998,133.27570232748985L217.99125,143.17821684479713L218.39625,140.75229200720787L218.80125,147.7171001136303L219.20624999999998,144.5797609090805L219.61125,132.13397893309593L220.01625,146.75451609492302L220.42125,139.2694600224495L220.82625,156.02690416574475L221.23125,140.80955225229263L221.484375,140.69453063607216L221.889375,156.0312296748161L222.294375,139.80867165327072L222.699375,144.979079246521L223.104375,145.61593133211136L223.509375,136.7563392519951L223.914375,152.49051037430763L224.31937499999998,148.34857168793678L224.724375,140.2021083533764L225.129375,127.45267036557198L225.534375,143.91996252536774L225.93937499999998,153.01020446419716L226.344375,133.00306338071823L226.74937500000001,131.12101855874062L227.154375,127.36692506074905L227.559375,149.76412090659142L227.8125,117.46393579244614L228.2175,154.0765479505062L228.6225,137.79549005627632L229.0275,152.26750928163528L229.43249999999998,161.34720119833943L229.8375,151.7442809343338L230.2425,116.58659595251083L230.6475,139.79419174790382L231.05249999999998,153.0368432700634L231.4575,143.50603240728378L231.8625,141.56445908546448L232.26749999999998,148.0894631445408L232.67249999999999,135.90442496538162L233.07750000000001,146.53787139058113L233.48250000000002,134.5429973602295L233.8875,125.40989595651627L234.140625,139.33798241615295L234.54562499999997,149.09611988067627L234.950625,121.8986112177372L235.355625,164.90981179475781L235.760625,138.21975919604301L236.16562499999998,150.35763877630234L236.570625,135.84088745713234L236.975625,148.45074865221977L237.38062499999998,134.92757204174995L237.78562499999998,141.3876670897007L238.190625,130.60422572493553L238.595625,157.5426785945892L239.00062499999999,122.1935370862484L239.405625,161.3803282678127L239.81062500000002,141.94404888153076L240.215625,140.10338652133942L240.46875,125.13121712207794L240.87375,143.64452782273293L241.27875,148.0208616256714L241.68375,139.48510247468948L242.08875,138.14050215482712L242.49374999999998,144.9505414366722L242.89875,146.62427607178688L243.30375,145.91222870349884L243.70875,134.41919285058975L244.11374999999998,133.06443813443184L244.51875,130.6928986608982L244.92375,148.6692923605442L245.32874999999999,163.45475274324414L245.73375,166.83595570921895L246.13875000000002,130.81752079725266L246.54375000000002,130.75105565786362L246.796875,127.58380714058876L247.201875,162.38308149576184L247.606875,130.82411456108093L248.011875,159.7924180626869L248.416875,142.90148976445198L248.821875,153.97168073058128L249.22687499999998,154.48359417915344L249.631875,149.46162539720535L250.036875,125.01548337936401L250.441875,131.98991838097572L250.84687499999998,122.8009018599987L251.251875,148.36402747035027L251.656875,137.17069137096405L252.061875,156.9250539243221L252.466875,135.5790886580944L252.87187500000002,138.7765629887581L253.125,144.23588293790817L253.53,132.48099553585052L253.935,132.8643833398819L254.33999999999997,153.2957671880722L254.745,156.9729246497154L255.15,142.592347741127L255.555,143.84379136562347L255.95999999999998,159.84746280312535L256.365,149.8499717116356L256.77,129.9682176411152L257.175,142.13278877735138L257.58,135.45478302240372L257.985,129.08098715543747L258.39,146.36912378668785L258.795,141.49343106150627L259.2,148.8595883846283L259.453125,141.06515291333199L259.858125,136.41963529586792L260.263125,125.23165333271027L260.66812500000003,156.84289562702176" style="fill: none;" fill="none"></path></g></g></g></g></g></g><g transform="translate(51, 177)" clip-path="url(#clip_1)"><clipPath id="clip_1"><rect width="278" height="23"></rect></clipPath><g><g><line x1="0" y1="0" x2="0" y2="5" style="visibility: inherit;" fill="rgb(0, 0, 0)" stroke="rgb(204, 204, 204)" stroke-width="1px"></line><line x1="25.3125" y1="0" x2="25.3125" y2="5" style="visibility: inherit;" fill="rgb(0, 0, 0)" stroke="rgb(204, 204, 204)" stroke-width="1px"></line><line x1="50.625" y1="0" x2="50.625" y2="5" style="visibility: inherit;" fill="rgb(0, 0, 0)" stroke="rgb(204, 204, 204)" stroke-width="1px"></line><line x1="75.9375" y1="0" x2="75.9375" y2="5" style="visibility: inherit;" fill="rgb(0, 0, 0)" stroke="rgb(204, 204, 204)" stroke-width="1px"></line><line x1="101.25" y1="0" x2="101.25" y2="5" style="visibility: inherit;" fill="rgb(0, 0, 0)" stroke="rgb(204, 204, 204)" stroke-width="1px"></line><line x1="126.5625" y1="0" x2="126.5625" y2="5" style="visibility: inherit;" fill="rgb(0, 0, 0)" stroke="rgb(204, 204, 204)" stroke-width="1px"></line><line x1="151.875" y1="0" x2="151.875" y2="5" style="visibility: inherit;" fill="rgb(0, 0, 0)" stroke="rgb(204, 204, 204)" stroke-width="1px"></line><line x1="177.1875" y1="0" x2="177.1875" y2="5" style="visibility: inherit;" fill="rgb(0, 0, 0)" stroke="rgb(204, 204, 204)" stroke-width="1px"></line><line x1="202.5" y1="0" x2="202.5" y2="5" style="visibility: inherit;" fill="rgb(0, 0, 0)" stroke="rgb(204, 204, 204)" stroke-width="1px"></line><line x1="227.8125" y1="0" x2="227.8125" y2="5" style="visibility: inherit;" fill="rgb(0, 0, 0)" stroke="rgb(204, 204, 204)" stroke-width="1px"></line><line x1="253.125" y1="0" x2="253.125" y2="5" style="visibility: inherit;" fill="rgb(0, 0, 0)" stroke="rgb(204, 204, 204)" stroke-width="1px"></line><line x1="278.4375" y1="0" x2="278.4375" y2="5" style="visibility: inherit;" fill="rgb(0, 0, 0)" stroke="rgb(204, 204, 204)" stroke-width="1px"></line></g><g transform="translate(0, 8)"><text x="0" y="0" dx="0em" dy="0.95em" style="text-anchor: middle; visibility: hidden; font-family: Roboto, sans-serif; font-size: 12px; font-weight: 200;" fill="rgb(33, 33, 33)" stroke="none" stroke-width="1px">-200k</text><text x="25.3125" y="0" dx="0em" dy="0.95em" style="text-anchor: middle; visibility: inherit; font-family: Roboto, sans-serif; font-size: 12px; font-weight: 200;" fill="rgb(33, 33, 33)" stroke="none" stroke-width="1px">0</text><text x="50.625" y="0" dx="0em" dy="0.95em" style="text-anchor: middle; visibility: hidden; font-family: Roboto, sans-serif; font-size: 12px; font-weight: 200;" fill="rgb(33, 33, 33)" stroke="none" stroke-width="1px">200k</text><text x="75.9375" y="0" dx="0em" dy="0.95em" style="text-anchor: middle; visibility: inherit; font-family: Roboto, sans-serif; font-size: 12px; font-weight: 200;" fill="rgb(33, 33, 33)" stroke="none" stroke-width="1px">400k</text><text x="101.25" y="0" dx="0em" dy="0.95em" style="text-anchor: middle; visibility: hidden; font-family: Roboto, sans-serif; font-size: 12px; font-weight: 200;" fill="rgb(33, 33, 33)" stroke="none" stroke-width="1px">600k</text><text x="126.5625" y="0" dx="0em" dy="0.95em" style="text-anchor: middle; visibility: inherit; font-family: Roboto, sans-serif; font-size: 12px; font-weight: 200;" fill="rgb(33, 33, 33)" stroke="none" stroke-width="1px">800k</text><text x="151.875" y="0" dx="0em" dy="0.95em" style="text-anchor: middle; visibility: hidden; font-family: Roboto, sans-serif; font-size: 12px; font-weight: 200;" fill="rgb(33, 33, 33)" stroke="none" stroke-width="1px">1M</text><text x="177.1875" y="0" dx="0em" dy="0.95em" style="text-anchor: middle; visibility: inherit; font-family: Roboto, sans-serif; font-size: 12px; font-weight: 200;" fill="rgb(33, 33, 33)" stroke="none" stroke-width="1px">1.2M</text><text x="202.5" y="0" dx="0em" dy="0.95em" style="text-anchor: middle; visibility: hidden; font-family: Roboto, sans-serif; font-size: 12px; font-weight: 200;" fill="rgb(33, 33, 33)" stroke="none" stroke-width="1px">1.4M</text><text x="227.8125" y="0" dx="0em" dy="0.95em" style="text-anchor: middle; visibility: inherit; font-family: Roboto, sans-serif; font-size: 12px; font-weight: 200;" fill="rgb(33, 33, 33)" stroke="none" stroke-width="1px">1.6M</text><text x="253.125" y="0" dx="0em" dy="0.95em" style="text-anchor: middle; visibility: hidden; font-family: Roboto, sans-serif; font-size: 12px; font-weight: 200;" fill="rgb(33, 33, 33)" stroke="none" stroke-width="1px">1.8M</text><text x="278.4375" y="0" dx="0em" dy="0.95em" style="text-anchor: middle; visibility: hidden; font-family: Roboto, sans-serif; font-size: 12px; font-weight: 200;" fill="rgb(33, 33, 33)" stroke="none" stroke-width="1px">2M</text></g><line x1="0" y1="0" x2="278.4375" y2="0" fill="rgb(0, 0, 0)" stroke="rgb(204, 204, 204)" stroke-width="1px"></line></g></g></g></g></svg>